<?xml version="1.0" standalone="no"?>
<!DOCTYPE svg PUBLIC "-//W3C//DTD SVG 20010904//EN"
 "http://www.w3.org/TR/2001/REC-SVG-20010904/DTD/svg10.dtd">
<svg version="1.0" xmlns="http://www.w3.org/2000/svg"
 width="512.000000pt" height="512.000000pt" viewBox="0 0 512.000000 512.000000"
 preserveAspectRatio="xMidYMid meet">
<metadata>
Created by potrace 1.10, written by Peter Selinger 2001-2011
</metadata>
<g transform="translate(0.000000,512.000000) scale(0.100000,-0.100000)"
fill="#000000" stroke="none">
<path d="M2150 5014 c-14 -2 -65 -9 -115 -15 -350 -44 -751 -219 -1045 -456
-96 -78 -279 -267 -352 -364 -116 -156 -248 -391 -292 -522 -26 -77 1 -149 68
-181 71 -34 163 -8 192 54 154 320 216 421 362 586 202 229 498 421 794 518
890 292 1851 -117 2258 -959 377 -779 163 -1715 -515 -2257 -556 -444 -1322
-531 -1963 -223 -387 186 -694 497 -874 885 -72 155 -71 153 -107 177 -65 44
-172 20 -205 -45 -36 -72 -29 -106 60 -287 103 -213 220 -378 389 -553 325
-337 724 -545 1204 -629 140 -25 527 -25 672 0 314 53 598 164 853 334 605
405 966 1074 966 1793 0 416 -128 840 -356 1181 -339 509 -853 842 -1454 945
-90 15 -480 28 -540 18z"/>
<path d="M2145 3786 c-78 -34 -110 -129 -70 -206 8 -14 133 -144 279 -290
l266 -265 -1257 -5 c-1216 -5 -1259 -6 -1290 -24 -38 -24 -73 -83 -73 -126 0
-43 35 -102 73 -126 31 -18 74 -19 1290 -24 l1257 -5 -266 -265 c-146 -146
-272 -277 -280 -292 -8 -15 -14 -50 -14 -77 0 -42 5 -56 31 -86 41 -46 94 -62
152 -46 36 11 99 70 449 419 225 224 415 421 423 438 20 42 19 103 -1 134 -33
50 -810 822 -846 841 -43 22 -81 24 -123 5z"/>
</g>
</svg>
